HIERARCHY
ROOT Hips
{
	OFFSET 0.00000 0.00000 0.00000
	CHANNELS 6 Xposition Yposition Zposition Zrotation Yrotation Xrotation 
	JOINT LHipJoint
	{
		OFFSET 0 0 0
		CHANNELS 3 Zrotation Yrotation Xrotation
		JOINT LeftHip
		{
			OFFSET 1.65674 -1.80282 0.62477
			CHANNELS 3 Zrotation Yrotation Xrotation
			JOINT LeftKnee
			{
				OFFSET 2.59720 -7.13576 0.00000
				CHANNELS 3 Zrotation Yrotation Xrotation
				JOINT LeftAnkle
				{
					OFFSET 2.49236 -6.84770 0.00000
					CHANNELS 3 Zrotation Yrotation Xrotation
					JOINT LeftToe
					{
						OFFSET 0.19704 -0.54136 2.14581
						CHANNELS 3 Zrotation Yrotation Xrotation
						End Site
						{
							OFFSET 0.00000 -0.00000 1.11249
						}
					}
				}
			}
		}
	}
	JOINT RHipJoint
	{
		OFFSET 0 0 0
		CHANNELS 3 Zrotation Yrotation Xrotation
		JOINT RightHip
		{
			OFFSET -1.61070 -1.80282 0.62476
			CHANNELS 3 Zrotation Yrotation Xrotation
			JOINT RightKnee
			{
				OFFSET -2.59502 -7.12977 0.00000
				CHANNELS 3 Zrotation Yrotation Xrotation
				JOINT RightAnkle
				{
					OFFSET -2.46780 -6.78024 0.00000
					CHANNELS 3 Zrotation Yrotation Xrotation
					JOINT RightToe
					{
						OFFSET -0.23024 -0.63258 2.13368
						CHANNELS 3 Zrotation Yrotation Xrotation
						End Site
						{
							OFFSET -0.00000 -0.00000 1.11569
						}
					}
				}
			}
		}
	}
	JOINT lowerback
	{
		OFFSET 0 0 0
		CHANNELS 3 Zrotation Yrotation Xrotation
		JOINT Chest
		{
			OFFSET 0.01961 2.05450 -0.14112
			CHANNELS 3 Zrotation Yrotation Xrotation
			JOINT Chest2
			{
				OFFSET 0.01021 2.06436 -0.05921
				CHANNELS 3 Zrotation Yrotation Xrotation
				JOINT lowerneck
				{
					OFFSET 0 0 0
					CHANNELS 3 Zrotation Yrotation Xrotation
					JOINT Neck
					{
						OFFSET 0.00713 1.56711 0.14968
						CHANNELS 3 Zrotation Yrotation Xrotation
						JOINT Head
						{
							OFFSET 0.03429 1.56041 -0.10006
							CHANNELS 3 Zrotation Yrotation Xrotation
							End Site
							{
								OFFSET 0.01305 1.62560 -0.05265
							}
						}
					}
				}
				JOINT LeftCollar
				{
					OFFSET 0 0 0
					CHANNELS 3 Zrotation Yrotation Xrotation
					JOINT LeftShoulder
					{
						OFFSET 3.54205 0.90436 -0.17364
CHANNELS 3 Zrotation Xrotation Yrotation
						JOINT LeftElbow
						{
OFFSET 0 -4.865130 -0.000000
CHANNELS 3 Zrotation Xrotation Yrotation
							JOINT LeftWrist
							{
OFFSET 0 -3.355540 0.000000
CHANNELS 3 Zrotation Xrotation Yrotation
								JOINT lhand
								{
									OFFSET 0 0 0
CHANNELS 3 Zrotation Xrotation Yrotation
									JOINT LFingers
									{
OFFSET 0 -0.661170 0.000000
CHANNELS 3 Zrotation Xrotation Yrotation
										End Site
										{
OFFSET 0 -0.533060 0.000000
										}
									}
								}
								JOINT LThumb
								{
OFFSET 0 0.000000 0.000000
CHANNELS 3 Zrotation Xrotation Yrotation
									End Site
									{
OFFSET 0 -0.541200 0.541200
									}
								}
							}
						}
					}
				}
				JOINT RightCollar
				{
					OFFSET 0 0 0
					CHANNELS 3 Zrotation Yrotation Xrotation
					JOINT RightShoulder
					{
						OFFSET -3.49802 0.75994 -0.32616
CHANNELS 3 Zrotation Xrotation Yrotation
						JOINT RightElbow
						{
OFFSET 0 -5.026490 0.000000
CHANNELS 3 Zrotation Xrotation Yrotation
							JOINT RightWrist
							{
OFFSET 0 -3.364310 0.000000
CHANNELS 3 Zrotation Xrotation Yrotation
								JOINT rhand
								{
									OFFSET 0 0 0
CHANNELS 3 Zrotation Xrotation Yrotation
									JOINT RFingers
									{
OFFSET 0 -0.730410 0.000000
CHANNELS 3 Zrotation Xrotation Yrotation
										End Site
										{
OFFSET 0 -0.588870 0.000000
										}
									}
								}
								JOINT RThumb
								{
OFFSET 0 0.000000 0.000000
CHANNELS 3 Zrotation Xrotation Yrotation
									End Site
									{
OFFSET 0 -0.597860 0.597860
									}
								}
							}
						}
					}
				}
			}
		}
	}
}
MOTION
Frames: 7
Frame Time: 0.008333333333333333
9.287200 16.950000 -34.276200 1.161800 3.393900 8.209400 0.000000 0.000000 0.000000 -24.781100 -1.363800 14.554400 1.641800 8.076200 22.945800 1.565000 16.945400 23.763800 0.000000 0.000000 0.000000 0.000000 0.000000 0.000000 17.740300 18.680200 -36.105400 -6.521500 -14.915400 47.040600 -1.107200 -7.063500 -23.609900 -1.183500 6.904200 -19.431900 -2.185400 -4.343300 6.782900 1.547000 -5.894000 0.468600 3.340900 -2.897600 -2.919800 -2.788700 3.234300 -15.460700 -0.069800 4.711100 -4.943700 0.699300 2.382400 0.952500 0.000000 -0.000000 0.000000 17.888800 -6.853900 -60.495400 128.034700 -53.758000 92.248500 32.913900 -31.481700 -3.590000 0.000000 0.000000 0.000000 -7.125000 0.000000 0.000000 5.180200 34.218900 1.375100 0.000000 -0.000000 0.000000 -10.973700 42.809400 40.438000 -73.916600 -58.999700 -46.118100 -48.303500 -45.881400 -34.506900 0.000000 0.000000 0.000000 7.125000 0.000000 -0.000000 -8.062000 -15.572000 -10.014100
9.283209 16.969124 -34.169870 1.356628 3.384970 8.121275 0.000000 0.000000 0.000000 -24.950544 -1.341690 14.534673 1.701210 8.210412 23.357021 1.526092 17.442535 23.678604 0.000000 0.000000 0.000000 0.000000 0.000000 0.000000 17.634315 18.547424 -35.723325 -6.292071 -14.696739 46.126588 -1.149181 -6.860029 -23.813773 -1.227692 7.024284 -19.788592 -2.360386 -4.346602 6.789705 1.498157 -5.913210 0.490681 3.387877 -2.906272 -2.886836 -2.867636 3.260545 -15.526801 -0.019980 4.761523 -4.842481 0.734648 2.408674 0.993418 0.000000 0.000000 0.000000 17.930867 -6.586395 -60.762014 127.739572 -53.865852 92.009882 32.804440 -31.815535 -3.339121 0.000000 0.000000 0.000000 -7.125000 0.000000 0.000000 5.080446 33.918604 1.383686 0.000000 0.000000 0.000000 -10.818843 42.655519 40.329057 -74.071974 -59.019111 -46.251335 -48.172619 -45.608153 -34.374354 0.000000 0.000000 0.000000 7.125000 0.000000 0.000000 -8.039028 -15.360288 -9.964481
9.279217 16.988248 -34.063540 1.551456 3.376040 8.033150 0.000000 0.000000 0.000000 -25.119989 -1.319580 14.514946 1.760621 8.344623 23.768241 1.487184 17.939669 23.593408 0.000000 0.000000 0.000000 0.000000 0.000000 0.000000 17.528329 18.414648 -35.341249 -6.062642 -14.478078 45.212576 -1.191161 -6.656558 -24.017646 -1.271883 7.144368 -20.145284 -2.535373 -4.349904 6.796511 1.449313 -5.932420 0.512763 3.434854 -2.914944 -2.853871 -2.946572 3.286790 -15.592902 0.029839 4.811945 -4.741263 0.769995 2.434948 1.034336 0.000000 0.000000 0.000000 17.972934 -6.318891 -61.028629 127.444444 -53.973704 91.771265 32.694980 -32.149370 -3.088242 0.000000 0.000000 0.000000 -7.125000 0.000000 0.000000 4.980691 33.618307 1.392271 0.000000 0.000000 0.000000 -10.663985 42.501638 40.220114 -74.227349 -59.038522 -46.384571 -48.041738 -45.334905 -34.241808 0.000000 0.000000 0.000000 7.125000 0.000000 0.000000 -8.016057 -15.148576 -9.914863
9.275226 17.007372 -33.957210 1.746284 3.367109 7.945025 0.000000 0.000000 0.000000 -25.289433 -1.297469 14.495219 1.820031 8.478835 24.179462 1.448275 18.436804 23.508212 0.000000 0.000000 0.000000 0.000000 0.000000 0.000000 17.422344 18.281872 -34.959174 -5.833213 -14.259417 44.298564 -1.233142 -6.453087 -24.221519 -1.316075 7.264452 -20.501975 -2.710359 -4.353207 6.803316 1.400470 -5.951630 0.534844 3.481831 -2.923615 -2.820907 -3.025509 3.313035 -15.659003 0.079659 4.862368 -4.640044 0.805343 2.461221 1.075255 0.000000 0.000000 0.000000 18.015000 -6.051386 -61.295243 127.149316 -54.081555 91.532647 32.585521 -32.483205 -2.837364 0.000000 0.000000 0.000000 -7.125000 0.000000 0.000000 4.880937 33.318011 1.400857 0.000000 0.000000 0.000000 -10.509128 42.347757 40.111171 -74.382723 -59.057933 -46.517806 -47.910858 -45.061658 -34.109261 0.000000 0.000000 0.000000 7.125000 0.000000 0.000000 -7.993085 -14.936863 -9.865244
9.272572 17.017967 -33.853852 2.016918 3.381105 7.887107 0.000000 0.000000 0.000000 -25.522842 -1.191545 14.402465 1.912516 8.674247 24.786438 1.428401 18.533453 23.413076 0.000000 0.000000 0.000000 0.000000 0.000000 0.000000 17.209232 18.121208 -34.721608 -5.657347 -14.085954 43.586800 -1.283176 -6.190436 -24.450607 -1.336033 7.318819 -20.663417 -2.944228 -4.369569 6.771000 1.344940 -5.991121 0.574013 3.551021 -2.943535 -2.741125 -3.130164 3.328657 -15.780762 0.098143 4.905689 -4.522674 0.836753 2.482963 1.131387 0.000000 0.000000 0.000000 17.998734 -5.785606 -61.524504 126.835779 -54.193434 91.278473 32.559296 -32.700241 -2.577867 0.000000 0.000000 0.000000 -7.125000 0.000000 0.000000 4.848193 33.009973 1.428996 0.000000 0.000000 0.000000 -10.396408 42.107327 40.013669 -74.508990 -59.073511 -46.626110 -47.785563 -44.791590 -34.040961 0.000000 0.000000 0.000000 7.125000 0.000000 0.000000 -7.951600 -14.799011 -9.799772
9.271165 17.020609 -33.753265 2.358248 3.416481 7.857359 0.000000 0.000000 0.000000 -25.815902 -1.007456 14.241606 2.035844 8.926734 25.575973 1.426276 18.256616 23.308670 0.000000 0.000000 0.000000 0.000000 0.000000 0.000000 16.896215 17.934534 -34.618810 -5.531434 -13.954642 43.063650 -1.340720 -5.872595 -24.703208 -1.333391 7.311899 -20.642771 -3.233010 -4.398111 6.702200 1.283175 -6.049527 0.629116 3.640926 -2.973943 -2.617681 -3.258805 3.334371 -15.954427 0.087404 4.942386 -4.390243 0.864491 2.500479 1.201709 0.000000 0.000000 0.000000 17.928068 -5.521432 -61.718930 126.505074 -54.309067 91.009791 32.610695 -32.808351 -2.310334 0.000000 0.000000 0.000000 -7.125000 0.000000 0.000000 4.877941 32.694716 1.475370 0.000000 0.000000 0.000000 -10.322985 41.786184 39.926836 -74.608113 -59.085513 -46.711162 -47.665479 -44.524487 -34.032577 0.000000 0.000000 0.000000 7.125000 0.000000 0.000000 -7.892850 -14.730039 -9.719515
9.269758 17.023250 -33.652678 2.699577 3.451858 7.827611 0.000000 0.000000 0.000000 -26.108963 -0.823367 14.080747 2.159173 9.179221 26.365507 1.424151 17.979780 23.204264 0.000000 0.000000 0.000000 0.000000 0.000000 0.000000 16.583198 17.747861 -34.516012 -5.405521 -13.823331 42.540501 -1.398263 -5.554754 -24.955810 -1.330750 7.304979 -20.622126 -3.521792 -4.426653 6.633400 1.221410 -6.107932 0.684219 3.730831 -3.004352 -2.494238 -3.387446 3.340085 -16.128093 0.076665 4.979083 -4.257812 0.892229 2.517995 1.272031 0.000000 0.000000 0.000000 17.857401 -5.257258 -61.913356 126.174369 -54.424700 90.741109 32.662094 -32.916461 -2.042801 0.000000 0.000000 0.000000 -7.125000 0.000000 0.000000 4.907689 32.379459 1.521744 0.000000 0.000000 0.000000 -10.249562 41.465041 39.840004 -74.707235 -59.097516 -46.796215 -47.545395 -44.257385 -34.024192 0.000000 0.000000 0.000000 7.125000 0.000000 0.000000 -7.834101 -14.661066 -9.639257
